<svg width="436" height="86" viewBox="0 0 436 86" fill="none" xmlns="http://www.w3.org/2000/svg">
<path d="M87.1895 61.2461V24.7715C87.1895 24.0098 87.4531 23.3555 87.9805 22.8086C88.5078 22.2617 89.1523 21.9883 89.9141 21.9883H112.268C124.084 21.9883 129.992 27.4375 129.992 38.3359C129.992 49.2148 124.084 54.6543 112.268 54.6543H98.2344V61.2461C98.2344 62.0078 97.9609 62.6621 97.4141 63.209C96.8867 63.7363 96.2422 64 95.4805 64H89.9727C89.2109 64 88.5566 63.7363 88.0098 63.209C87.4629 62.6621 87.1895 62.0078 87.1895 61.2461ZM98.2344 46.3633H108.928C112.209 46.3633 114.699 45.8164 116.398 44.7227C118.098 43.6094 118.947 41.4805 118.947 38.3359C118.947 35.1719 118.098 33.043 116.398 31.9492C114.699 30.8359 112.209 30.2793 108.928 30.2793H98.2344V46.3633ZM137.58 60.3672C134.533 57.5547 133.01 53.4141 133.01 47.9453C133.01 42.457 134.533 38.3164 137.58 35.5234C140.627 32.7109 145.002 31.3047 150.705 31.3047C156.428 31.3047 160.812 32.7109 163.859 35.5234C166.906 38.3164 168.43 42.457 168.43 47.9453C168.43 53.4141 166.906 57.5547 163.859 60.3672C160.812 63.1797 156.428 64.5859 150.705 64.5859C145.002 64.5859 140.627 63.1797 137.58 60.3672ZM144.992 40.3281C143.781 41.9102 143.176 44.4395 143.176 47.916C143.176 51.3926 143.781 53.9316 144.992 55.5332C146.203 57.1348 148.107 57.9355 150.705 57.9355C153.322 57.9355 155.236 57.1348 156.447 55.5332C157.678 53.9316 158.293 51.3926 158.293 47.916C158.293 44.4395 157.678 41.9102 156.447 40.3281C155.236 38.7461 153.322 37.9551 150.705 37.9551C148.107 37.9551 146.203 38.7461 144.992 40.3281ZM206.223 62.7109C206.223 63.5703 205.715 64 204.699 64H199.162C197.287 64 195.793 63.082 194.68 61.2461L190.959 55.1816C189.357 52.584 187.033 51.2852 183.986 51.2852V62.2129C183.986 62.7402 183.811 63.1699 183.459 63.502C183.127 63.834 182.707 64 182.199 64H175.637C175.109 64 174.68 63.834 174.348 63.502C174.016 63.1699 173.85 62.7402 173.85 62.2129V23.8047C173.85 23.2773 174.016 22.8477 174.348 22.5156C174.699 22.1641 175.129 21.9883 175.637 21.9883H182.199C182.727 21.9883 183.156 22.1641 183.488 22.5156C183.82 22.8477 183.986 23.2773 183.986 23.8047V44.6055C187.385 44.6055 189.709 43.2871 190.959 40.6504L193.771 34.6738C194.162 33.834 194.738 33.1602 195.5 32.6523C196.262 32.1445 197.082 31.8906 197.961 31.8906H203.498C204.475 31.8906 204.963 32.2715 204.963 33.0332C204.963 33.4629 204.807 34.0098 204.494 34.6738L200.715 42.6426C200.07 43.9707 199.191 45.1133 198.078 46.0703C196.965 47.0273 195.764 47.6426 194.475 47.916C196.877 48.6387 198.957 50.3965 200.715 53.1895L205.695 61.2461C206.027 61.8125 206.203 62.3008 206.223 62.7109ZM212.58 60.3086C209.572 57.457 208.068 53.3555 208.068 48.0039C208.068 42.6328 209.582 38.5117 212.609 35.6406C215.637 32.75 219.836 31.3047 225.207 31.3047C230.578 31.3047 234.768 32.7109 237.775 35.5234C240.783 38.3164 242.287 42.3301 242.287 47.5645V49.2344C242.287 49.7617 242.111 50.2012 241.76 50.5527C241.428 50.8848 240.998 51.0508 240.471 51.0508H218.41C218.605 53.4531 219.289 55.2012 220.461 56.2949C221.652 57.3887 223.547 57.9355 226.145 57.9355C228.742 57.9355 230.52 57.3496 231.477 56.1777C232.434 55.0059 233.615 54.4102 235.021 54.3906H239.387C239.914 54.3906 240.344 54.5664 240.676 54.918C241.027 55.25 241.203 55.6797 241.203 56.207C241.203 61.8125 235.861 64.6055 225.178 64.5859C219.787 64.5859 215.588 63.1602 212.58 60.3086ZM218.352 44.8691H231.975C231.779 40.2598 229.514 37.9551 225.178 37.9551C220.861 37.9551 218.586 40.2598 218.352 44.8691Z" fill="#F5D646"/>
<path d="M248.264 61.2461V24.7715C248.264 24.0098 248.527 23.3555 249.055 22.8086C249.582 22.2617 250.227 21.9883 250.988 21.9883H273.342C285.158 21.9883 291.066 27.4375 291.066 38.3359C291.066 49.2148 285.158 54.6543 273.342 54.6543H259.309V61.2461C259.309 62.0078 259.035 62.6621 258.488 63.209C257.961 63.7363 257.316 64 256.555 64H251.047C250.285 64 249.631 63.7363 249.084 63.209C248.537 62.6621 248.264 62.0078 248.264 61.2461ZM259.309 46.3633H270.002C273.283 46.3633 275.773 45.8164 277.473 44.7227C279.172 43.6094 280.021 41.4805 280.021 38.3359C280.021 35.1719 279.172 33.043 277.473 31.9492C275.773 30.8359 273.283 30.2793 270.002 30.2793H259.309V46.3633ZM297.951 61.8906C295.373 60.0938 294.084 57.5547 294.084 54.2734C294.084 50.9922 295.373 48.4727 297.951 46.7148C300.549 44.957 303.889 44.0781 307.971 44.0781H317.668C317.668 41.793 317.189 40.2012 316.232 39.3027C315.275 38.4043 313.596 37.9551 311.193 37.9551C308.811 37.9551 307.131 38.5508 306.154 39.7422C305.197 40.9141 304.016 41.5 302.609 41.5H298.244C297.717 41.5 297.277 41.334 296.926 41.002C296.594 40.6504 296.428 40.2207 296.428 39.7129C296.428 34.1074 301.75 31.3047 312.395 31.3047C317.043 31.3047 320.773 32.3496 323.586 34.4395C326.398 36.5098 327.805 39.7227 327.805 44.0781V62.2129C327.805 62.7402 327.639 63.1699 327.307 63.502C326.975 63.834 326.545 64 326.018 64H320.363C319.836 64 319.406 63.834 319.074 63.502C318.742 63.1504 318.576 62.7207 318.576 62.2129V61.3047C315.49 63.5117 311.926 64.6055 307.883 64.5859C303.859 64.5859 300.549 63.6875 297.951 61.8906ZM308.674 50.7285C307.307 50.7285 306.223 51.0605 305.422 51.7246C304.641 52.3887 304.25 53.248 304.25 54.3027C304.25 55.3574 304.66 56.2266 305.48 56.9102C306.301 57.5938 307.463 57.9355 308.967 57.9355C311.975 57.9355 314.875 57.0566 317.668 55.2988V50.7285H308.674ZM357.248 39.332L352.736 39.1562C350.1 39.1562 347.58 40.6016 345.178 43.4922V62.2129C345.178 62.7402 345.002 63.1699 344.65 63.502C344.318 63.834 343.898 64 343.391 64H336.828C336.301 64 335.871 63.834 335.539 63.502C335.207 63.1699 335.041 62.7402 335.041 62.2129V33.707C335.041 33.1797 335.207 32.75 335.539 32.418C335.891 32.0664 336.32 31.8906 336.828 31.8906H343.391C343.918 31.8906 344.348 32.0664 344.68 32.418C345.012 32.75 345.178 33.1797 345.178 33.707V35.5527C347.17 34.1074 349.084 33.043 350.92 32.3594C352.775 31.6562 355.197 31.3047 358.186 31.3047C358.713 31.3047 359.143 31.4805 359.475 31.832C359.826 32.1641 360.002 32.584 360.002 33.0918V37.5449C360.002 38.0723 359.826 38.502 359.475 38.834C359.143 39.166 358.713 39.332 358.186 39.332H357.248Z" fill="#0E55BF"/>
<path d="M379.748 64.5859C374.279 64.5859 370.021 63.1797 366.975 60.3672C363.928 57.5547 362.404 53.4238 362.404 47.9746C362.404 42.5059 363.918 38.3652 366.945 35.5527C369.973 32.7207 374.182 31.3047 379.572 31.3047C384.982 31.3047 389.133 32.1641 392.023 33.8828C394.934 35.6016 396.389 38.1406 396.389 41.5C396.389 42.0273 396.213 42.457 395.861 42.7891C395.529 43.1211 395.1 43.2871 394.572 43.2871H390.207C388.879 43.2871 387.756 42.5742 386.838 41.1484C385.686 39.3125 383.645 38.3945 380.715 38.3945C377.805 38.3945 375.764 39.1465 374.592 40.6504C373.439 42.1348 372.863 44.5664 372.863 47.9453C372.863 51.3242 373.459 53.7656 374.65 55.2695C375.861 56.7734 377.951 57.5254 380.92 57.5254C383.908 57.5254 385.979 56.6074 387.131 54.7715C388.049 53.3262 389.172 52.6035 390.5 52.6035H394.865C395.393 52.6035 395.822 52.7793 396.154 53.1309C396.506 53.4629 396.682 53.8828 396.682 54.3906C396.682 57.75 395.227 60.2891 392.316 62.0078C389.426 63.7266 385.236 64.5859 379.748 64.5859ZM404.182 60.3086C401.174 57.457 399.67 53.3555 399.67 48.0039C399.67 42.6328 401.184 38.5117 404.211 35.6406C407.238 32.75 411.438 31.3047 416.809 31.3047C422.18 31.3047 426.369 32.7109 429.377 35.5234C432.385 38.3164 433.889 42.3301 433.889 47.5645V49.2344C433.889 49.7617 433.713 50.2012 433.361 50.5527C433.029 50.8848 432.6 51.0508 432.072 51.0508H410.012C410.207 53.4531 410.891 55.2012 412.062 56.2949C413.254 57.3887 415.148 57.9355 417.746 57.9355C420.344 57.9355 422.121 57.3496 423.078 56.1777C424.035 55.0059 425.217 54.4102 426.623 54.3906H430.988C431.516 54.3906 431.945 54.5664 432.277 54.918C432.629 55.25 432.805 55.6797 432.805 56.207C432.805 61.8125 427.463 64.6055 416.779 64.5859C411.389 64.5859 407.189 63.1602 404.182 60.3086ZM409.953 44.8691H423.576C423.381 40.2598 421.115 37.9551 416.779 37.9551C412.463 37.9551 410.188 40.2598 409.953 44.8691Z" fill="#E90006"/>
<path d="M98.2344 54.6543V51.6543H95.2344V54.6543H98.2344ZM88.0098 63.209L85.8884 65.3303L85.9077 65.3496L85.9274 65.3685L88.0098 63.209ZM98.2344 46.3633H95.2344V49.3633H98.2344V46.3633ZM116.398 44.7227L118.022 47.2453L118.032 47.2387L118.043 47.232L116.398 44.7227ZM116.398 31.9492L114.754 34.4586L114.765 34.4652L114.775 34.4718L116.398 31.9492ZM98.2344 30.2793V27.2793H95.2344V30.2793H98.2344ZM90.1895 61.2461V24.7715H84.1895V61.2461H90.1895ZM90.1895 24.7715C90.1895 24.7547 90.1908 24.7553 90.1882 24.7695C90.1855 24.7842 90.1798 24.8058 90.1698 24.8308C90.1597 24.8558 90.1486 24.8757 90.1399 24.8889C90.1315 24.9016 90.1294 24.902 90.14 24.891L85.8209 20.7262C84.7528 21.8339 84.1895 23.2353 84.1895 24.7715H90.1895ZM90.14 24.891C90.1461 24.8846 90.1394 24.8926 90.1183 24.9074C90.0968 24.9225 90.0671 24.9398 90.031 24.9551C89.995 24.9704 89.9623 24.9795 89.9374 24.9844C89.913 24.9891 89.9037 24.9883 89.9141 24.9883V18.9883C88.3402 18.9883 86.9154 19.5912 85.8209 20.7262L90.14 24.891ZM89.9141 24.9883H112.268V18.9883H89.9141V24.9883ZM112.268 24.9883C117.771 24.9883 121.339 26.2623 123.527 28.2804C125.669 30.2563 126.992 33.4143 126.992 38.3359H132.992C132.992 32.3592 131.361 27.3433 127.595 23.8699C123.875 20.4389 118.581 18.9883 112.268 18.9883V24.9883ZM126.992 38.3359C126.992 43.2463 125.67 46.3963 123.529 48.3676C121.341 50.3822 117.772 51.6543 112.268 51.6543V57.6543C118.58 57.6543 123.873 56.2067 127.593 52.7818C131.36 49.3137 132.992 44.3045 132.992 38.3359H126.992ZM112.268 51.6543H98.2344V57.6543H112.268V51.6543ZM95.2344 54.6543V61.2461H101.234V54.6543H95.2344ZM95.2344 61.2461C95.2344 61.2563 95.2335 61.2491 95.2375 61.2284C95.2416 61.2073 95.2492 61.1803 95.2613 61.1513C95.2734 61.1224 95.2863 61.1004 95.2955 61.0868C95.3045 61.0737 95.306 61.0744 95.2927 61.0877L99.5354 65.3303C100.635 64.2305 101.234 62.8171 101.234 61.2461H95.2344ZM95.2927 61.0877C95.2891 61.0913 95.2972 61.0826 95.3182 61.0685C95.3395 61.0541 95.3672 61.0387 95.3993 61.0256C95.4312 61.0125 95.4585 61.0054 95.4769 61.0019C95.4948 60.9986 95.4973 61 95.4805 61V67C97.0188 67 98.4321 66.4336 99.5354 65.3303L95.2927 61.0877ZM95.4805 61H89.9727V67H95.4805V61ZM89.9727 61C89.9559 61 89.9565 60.9986 89.9707 61.0013C89.9854 61.004 90.007 61.0096 90.032 61.0197C90.0569 61.0298 90.0769 61.0409 90.09 61.0495C90.1028 61.058 90.1032 61.0601 90.0922 61.0494L85.9274 65.3685C87.035 66.4366 88.4365 67 89.9727 67V61ZM90.1311 61.0877C90.1179 61.0744 90.1193 61.0737 90.1283 61.0868C90.1376 61.1004 90.1504 61.1224 90.1625 61.1513C90.1747 61.1803 90.1822 61.2073 90.1863 61.2284C90.1903 61.2491 90.1895 61.2563 90.1895 61.2461H84.1895C84.1895 62.8171 84.7886 64.2305 85.8884 65.3303L90.1311 61.0877ZM98.2344 49.3633H108.928V43.3633H98.2344V49.3633ZM108.928 49.3633C112.46 49.3633 115.623 48.7893 118.022 47.2453L114.775 42.2001C113.775 42.8435 111.958 43.3633 108.928 43.3633V49.3633ZM118.043 47.232C120.98 45.3076 121.947 41.911 121.947 38.3359H115.947C115.947 41.0499 115.216 41.9111 114.754 42.2133L118.043 47.232ZM121.947 38.3359C121.947 34.7557 120.987 31.3347 118.022 29.4266L114.775 34.4718C115.209 34.7512 115.947 35.588 115.947 38.3359H121.947ZM118.043 29.4398C115.639 27.8651 112.466 27.2793 108.928 27.2793V33.2793C111.952 33.2793 113.76 33.8068 114.754 34.4586L118.043 29.4398ZM108.928 27.2793H98.2344V33.2793H108.928V27.2793ZM95.2344 30.2793V46.3633H101.234V30.2793H95.2344ZM137.58 35.5234L139.607 37.7349L139.615 37.7278L137.58 35.5234ZM163.859 35.5234L161.825 37.7279L161.832 37.7349L163.859 35.5234ZM156.447 55.5332L154.068 53.7055L154.061 53.7146L154.054 53.7239L156.447 55.5332ZM156.447 40.3281L154.065 42.1516L154.072 42.1608L154.079 42.1699L156.447 40.3281ZM139.615 58.1628C137.363 56.084 136.01 52.8572 136.01 47.9453H130.01C130.01 53.9709 131.704 59.0254 135.545 62.5716L139.615 58.1628ZM136.01 47.9453C136.01 43.0087 137.365 39.7899 139.607 37.7349L135.553 33.312C131.701 36.8429 130.01 41.9053 130.01 47.9453H136.01ZM139.615 37.7278C141.928 35.5924 145.47 34.3047 150.705 34.3047V28.3047C144.534 28.3047 139.326 29.8295 135.545 33.319L139.615 37.7278ZM150.705 34.3047C155.963 34.3047 159.513 35.594 161.825 37.7278L165.894 33.319C162.112 29.8279 156.893 28.3047 150.705 28.3047V34.3047ZM161.832 37.7349C164.074 39.7899 165.43 43.0087 165.43 47.9453H171.43C171.43 41.9053 169.738 36.8429 165.887 33.312L161.832 37.7349ZM165.43 47.9453C165.43 52.8572 164.077 56.084 161.825 58.1628L165.894 62.5716C169.736 59.0254 171.43 53.9709 171.43 47.9453H165.43ZM161.825 58.1628C159.513 60.2967 155.963 61.5859 150.705 61.5859V67.5859C156.893 67.5859 162.112 66.0627 165.894 62.5716L161.825 58.1628ZM150.705 61.5859C145.47 61.5859 141.928 60.2983 139.615 58.1628L135.545 62.5716C139.326 66.0611 144.534 67.5859 150.705 67.5859V61.5859ZM142.61 38.5047C140.795 40.8756 140.176 44.2193 140.176 47.916H146.176C146.176 44.6596 146.767 42.9447 147.374 42.1516L142.61 38.5047ZM140.176 47.916C140.176 51.6177 140.797 54.9591 142.599 57.3425L147.385 53.7239C146.765 52.9042 146.176 51.1675 146.176 47.916H140.176ZM142.599 57.3425C144.538 59.9062 147.47 60.9355 150.705 60.9355V54.9355C148.745 54.9355 147.869 54.3634 147.385 53.7239L142.599 57.3425ZM150.705 60.9355C153.951 60.9355 156.898 59.9118 158.84 57.3425L154.054 53.7239C153.575 54.3577 152.694 54.9355 150.705 54.9355V60.9355ZM158.826 57.3609C160.66 54.9744 161.293 51.6245 161.293 47.916H155.293C155.293 51.1607 154.696 52.8889 154.068 53.7055L158.826 57.3609ZM161.293 47.916C161.293 44.2125 160.662 40.8602 158.815 38.4863L154.079 42.1699C154.694 42.9601 155.293 44.6664 155.293 47.916H161.293ZM158.83 38.5047C156.882 35.9604 153.938 34.9551 150.705 34.9551V40.9551C152.707 40.9551 153.591 41.5318 154.065 42.1516L158.83 38.5047ZM150.705 34.9551C147.483 34.9551 144.553 35.9659 142.61 38.5047L147.374 42.1516C147.853 41.5263 148.732 40.9551 150.705 40.9551V34.9551ZM206.223 62.7109H209.223V62.6395L209.219 62.5682L206.223 62.7109ZM194.68 61.2461L197.245 59.6906L197.241 59.6839L197.237 59.6772L194.68 61.2461ZM190.959 55.1816L193.516 53.6128L193.513 53.6072L190.959 55.1816ZM183.986 51.2852V48.2852H180.986V51.2852H183.986ZM183.459 63.502L181.399 61.3209L181.368 61.3503L181.338 61.3806L183.459 63.502ZM183.488 22.5156L181.307 24.5755L181.337 24.6066L181.367 24.6369L183.488 22.5156ZM183.986 44.6055H180.986V47.6055H183.986V44.6055ZM190.959 40.6504L193.67 41.9355L193.673 41.9278L190.959 40.6504ZM193.771 34.6738L196.486 35.9512L196.492 35.939L193.771 34.6738ZM204.494 34.6738L207.205 35.9594L207.209 35.9512L204.494 34.6738ZM200.715 42.6426L203.414 43.9524L203.42 43.9403L203.425 43.9281L200.715 42.6426ZM194.475 47.916L193.852 44.9813L193.61 50.7889L194.475 47.916ZM200.715 53.1895L203.267 51.612L203.26 51.6017L203.254 51.5915L200.715 53.1895ZM205.695 61.2461L208.283 59.7289L208.266 59.6986L208.247 59.6686L205.695 61.2461ZM203.223 62.7109C203.223 62.5347 203.298 61.9 203.904 61.3876C204.414 60.9564 204.856 61 204.699 61V67C205.558 67 206.762 66.8288 207.78 65.9679C208.893 65.0258 209.223 63.7465 209.223 62.7109H203.223ZM204.699 61H199.162V67H204.699V61ZM199.162 61C198.505 61 197.908 60.7842 197.245 59.6906L192.114 62.8016C193.678 65.3799 196.069 67 199.162 67V61ZM197.237 59.6772L193.516 53.6128L188.402 56.7505L192.123 62.8149L197.237 59.6772ZM193.513 53.6072C191.366 50.1252 188.076 48.2852 183.986 48.2852V54.2852C185.99 54.2852 187.349 55.0427 188.405 56.7561L193.513 53.6072ZM180.986 51.2852V62.2129H186.986V51.2852H180.986ZM180.986 62.2129C180.986 62.1396 181 61.9862 181.078 61.7948C181.158 61.5977 181.278 61.4358 181.399 61.3209L185.519 65.683C186.528 64.7296 186.986 63.4826 186.986 62.2129H180.986ZM181.338 61.3806C181.45 61.2683 181.605 61.1595 181.792 61.0856C181.974 61.0135 182.122 61 182.199 61V67C183.431 67 184.637 66.5666 185.58 65.6233L181.338 61.3806ZM182.199 61H175.637V67H182.199V61ZM175.637 61C175.69 61 175.824 61.009 176 61.0771C176.183 61.1478 176.345 61.2568 176.469 61.3806L172.226 65.6233C173.192 66.5893 174.421 67 175.637 67V61ZM176.469 61.3806C176.593 61.5045 176.702 61.6665 176.773 61.8495C176.841 62.0257 176.85 62.1598 176.85 62.2129H170.85C170.85 63.429 171.26 64.6573 172.226 65.6233L176.469 61.3806ZM176.85 62.2129V23.8047H170.85V62.2129H176.85ZM176.85 23.8047C176.85 23.8578 176.841 23.9919 176.773 24.1681C176.702 24.3511 176.593 24.5131 176.469 24.6369L172.226 20.3943C171.26 21.3603 170.85 22.5886 170.85 23.8047H176.85ZM176.469 24.6369C176.383 24.7226 176.249 24.8233 176.069 24.8968C175.891 24.9697 175.736 24.9883 175.637 24.9883V18.9883C174.352 18.9883 173.154 19.4668 172.226 20.3943L176.469 24.6369ZM175.637 24.9883H182.199V18.9883H175.637V24.9883ZM182.199 24.9883C182.126 24.9883 181.972 24.9751 181.781 24.8968C181.584 24.8161 181.422 24.6971 181.307 24.5755L185.669 20.4558C184.716 19.4463 183.469 18.9883 182.199 18.9883V24.9883ZM181.367 24.6369C181.243 24.5131 181.134 24.3511 181.063 24.1681C180.995 23.9919 180.986 23.8578 180.986 23.8047H186.986C186.986 22.5886 186.576 21.3603 185.61 20.3943L181.367 24.6369ZM180.986 23.8047V44.6055H186.986V23.8047H180.986ZM183.986 47.6055C186.066 47.6055 188.038 47.2019 189.758 46.2261C191.507 45.2344 192.806 43.7575 193.67 41.9355L188.248 39.3653C187.862 40.18 187.374 40.6806 186.798 41.0073C186.194 41.3499 185.305 41.6055 183.986 41.6055V47.6055ZM193.673 41.9278L196.486 35.9512L191.057 33.3964L188.245 39.373L193.673 41.9278ZM196.492 35.939C196.653 35.5925 196.866 35.347 197.164 35.1485L193.836 30.1562C192.61 30.9734 191.671 32.0755 191.051 33.4086L196.492 35.939ZM197.164 35.1485C197.455 34.9548 197.7 34.8906 197.961 34.8906V28.8906C196.464 28.8906 195.069 29.3343 193.836 30.1562L197.164 35.1485ZM197.961 34.8906H203.498V28.8906H197.961V34.8906ZM203.498 34.8906C203.679 34.8906 203.262 34.9399 202.752 34.5418C202.472 34.324 202.25 34.0342 202.113 33.7122C201.983 33.4083 201.963 33.1588 201.963 33.0332H207.963C207.963 31.9635 207.582 30.7003 206.442 29.8108C205.443 29.0318 204.294 28.8906 203.498 28.8906V34.8906ZM201.963 33.0332C201.963 32.896 201.986 32.855 201.961 32.9415C201.938 33.0224 201.886 33.171 201.78 33.3964L207.209 35.9512C207.594 35.1322 207.963 34.1124 207.963 33.0332H201.963ZM201.784 33.3883L198.004 41.357L203.425 43.9281L207.205 35.9594L201.784 33.3883ZM198.016 41.3328C197.549 42.2939 196.923 43.1074 196.122 43.7954L200.034 48.3453C201.46 47.1192 202.591 45.6475 203.414 43.9524L198.016 41.3328ZM196.122 43.7954C195.347 44.4622 194.594 44.8239 193.852 44.9813L195.097 50.8507C196.933 50.4613 198.583 49.5925 200.034 48.3453L196.122 43.7954ZM193.61 50.7889C195.125 51.2443 196.68 52.4109 198.176 54.7874L203.254 51.5915C201.234 48.382 198.629 46.033 195.339 45.0432L193.61 50.7889ZM198.163 54.7669L203.144 62.8236L208.247 59.6686L203.267 51.612L198.163 54.7669ZM203.107 62.7633C203.154 62.8429 203.188 62.9075 203.212 62.9577C203.236 63.0081 203.249 63.0396 203.254 63.0533C203.258 63.0671 203.254 63.0573 203.247 63.026C203.24 62.9945 203.23 62.9358 203.226 62.8536L209.219 62.5682C209.167 61.4675 208.729 60.4893 208.283 59.7289L203.107 62.7633ZM212.609 35.6406L214.674 37.8174L214.681 37.8104L212.609 35.6406ZM237.775 35.5234L235.726 37.7147L235.734 37.7218L237.775 35.5234ZM218.41 51.0508V48.0508H215.156L215.42 51.2939L218.41 51.0508ZM220.461 56.2949L218.414 58.4881L218.423 58.4965L218.432 58.5049L220.461 56.2949ZM235.021 54.3906V51.3906H235.001L234.98 51.3909L235.021 54.3906ZM240.676 54.918L238.495 56.9778L238.554 57.0402L238.616 57.099L240.676 54.918ZM225.178 64.5859L225.183 61.5859H225.178V64.5859ZM218.352 44.8691L215.355 44.7168L215.195 47.8691H218.352V44.8691ZM231.975 44.8691V47.8691H235.104L234.972 44.7421L231.975 44.8691ZM214.644 58.1315C212.395 55.9995 211.068 52.7847 211.068 48.0039H205.068C205.068 53.9262 206.749 58.9146 210.516 62.4857L214.644 58.1315ZM211.068 48.0039C211.068 43.2066 212.403 39.9706 214.674 37.8174L210.545 33.4639C206.761 37.0528 205.068 42.0591 205.068 48.0039H211.068ZM214.681 37.8104C217.005 35.5912 220.38 34.3047 225.207 34.3047V28.3047C219.291 28.3047 214.268 29.9088 210.538 33.4709L214.681 37.8104ZM225.207 34.3047C230.056 34.3047 233.427 35.5647 235.726 37.7147L239.824 33.3322C236.108 29.8572 231.1 28.3047 225.207 28.3047V34.3047ZM235.734 37.7218C237.972 39.8002 239.287 42.9205 239.287 47.5645H245.287C245.287 41.7397 243.594 36.8326 239.817 33.3251L235.734 37.7218ZM239.287 47.5645V49.2344H245.287V47.5645H239.287ZM239.287 49.2344C239.287 49.1599 239.301 49.0182 239.37 48.8453C239.44 48.6689 239.542 48.5282 239.638 48.4314L243.881 52.6741C244.832 51.7231 245.287 50.5038 245.287 49.2344H239.287ZM239.638 48.4314C239.762 48.3076 239.924 48.1986 240.107 48.1279C240.283 48.0598 240.418 48.0508 240.471 48.0508V54.0508C241.687 54.0508 242.915 53.64 243.881 52.6741L239.638 48.4314ZM240.471 48.0508H218.41V54.0508H240.471V48.0508ZM215.42 51.2939C215.646 54.0758 216.477 56.6801 218.414 58.4881L222.508 54.1018C222.101 53.7223 221.565 52.8305 221.4 50.8077L215.42 51.2939ZM218.432 58.5049C220.429 60.3382 223.228 60.9355 226.145 60.9355V54.9355C223.866 54.9355 222.876 54.4391 222.49 54.085L218.432 58.5049ZM226.145 60.9355C229.021 60.9355 231.971 60.3148 233.8 58.0753L229.153 54.2801C229.068 54.3844 228.464 54.9355 226.145 54.9355V60.9355ZM233.8 58.0753C234.245 57.5306 234.617 57.3965 235.063 57.3903L234.98 51.3909C232.614 51.4238 230.622 52.4811 229.153 54.2801L233.8 58.0753ZM235.021 57.3906H239.387V51.3906H235.021V57.3906ZM239.387 57.3906C239.313 57.3906 239.16 57.3774 238.969 57.2991C238.771 57.2185 238.61 57.0994 238.495 56.9778L242.857 52.8581C241.903 51.8487 240.656 51.3906 239.387 51.3906V57.3906ZM238.616 57.099C238.494 56.9842 238.375 56.8223 238.295 56.6252C238.216 56.4338 238.203 56.2803 238.203 56.207H244.203C244.203 54.9373 243.745 53.6903 242.736 52.7369L238.616 57.099ZM238.203 56.207C238.203 57.1123 237.994 57.7641 237.67 58.2737C237.339 58.7952 236.775 59.3412 235.807 59.8473C233.782 60.906 230.361 61.5954 225.183 61.5859L225.172 67.5859C230.678 67.596 235.27 66.8987 238.587 65.1644C240.29 64.274 241.729 63.072 242.733 61.4938C243.744 59.9038 244.203 58.1045 244.203 56.207H238.203ZM225.178 61.5859C220.316 61.5859 216.943 60.3106 214.644 58.1315L210.516 62.4857C214.233 66.0097 219.258 67.5859 225.178 67.5859V61.5859ZM218.352 47.8691H231.975V41.8691H218.352V47.8691ZM234.972 44.7421C234.856 42.0102 234.107 39.451 232.268 37.5805C230.399 35.6793 227.866 34.9551 225.178 34.9551V40.9551C226.825 40.9551 227.593 41.3832 227.99 41.7867C228.416 42.2209 228.898 43.1188 228.977 44.9961L234.972 44.7421ZM225.178 34.9551C222.494 34.9551 219.969 35.6821 218.099 37.5759C216.261 39.4375 215.494 41.9866 215.355 44.7168L221.348 45.0215C221.443 43.1423 221.931 42.2344 222.369 41.7913C222.774 41.3804 223.545 40.9551 225.178 40.9551V34.9551ZM259.309 54.6543V51.6543H256.309V54.6543H259.309ZM249.084 63.209L246.963 65.3303L246.982 65.3496L247.002 65.3685L249.084 63.209ZM259.309 46.3633H256.309V49.3633H259.309V46.3633ZM277.473 44.7227L279.096 47.2453L279.107 47.2387L279.117 47.232L277.473 44.7227ZM277.473 31.9492L275.829 34.4586L275.839 34.4652L275.849 34.4718L277.473 31.9492ZM259.309 30.2793V27.2793H256.309V30.2793H259.309ZM251.264 61.2461V24.7715H245.264V61.2461H251.264ZM251.264 24.7715C251.264 24.7547 251.265 24.7553 251.262 24.7695C251.26 24.7842 251.254 24.8058 251.244 24.8308C251.234 24.8558 251.223 24.8757 251.214 24.8889C251.206 24.9016 251.204 24.902 251.214 24.891L246.895 20.7262C245.827 21.8339 245.264 23.2353 245.264 24.7715H251.264ZM251.214 24.891C251.22 24.8846 251.214 24.8926 251.193 24.9074C251.171 24.9225 251.141 24.9398 251.105 24.9551C251.069 24.9704 251.037 24.9795 251.012 24.9844C250.987 24.9891 250.978 24.9883 250.988 24.9883V18.9883C249.414 18.9883 247.99 19.5912 246.895 20.7262L251.214 24.891ZM250.988 24.9883H273.342V18.9883H250.988V24.9883ZM273.342 24.9883C278.845 24.9883 282.413 26.2623 284.601 28.2804C286.744 30.2563 288.066 33.4143 288.066 38.3359H294.066C294.066 32.3592 292.435 27.3433 288.669 23.8699C284.949 20.4389 279.655 18.9883 273.342 18.9883V24.9883ZM288.066 38.3359C288.066 43.2463 286.745 46.3963 284.603 48.3676C282.415 50.3822 278.846 51.6543 273.342 51.6543V57.6543C279.654 57.6543 284.947 56.2067 288.667 52.7818C292.434 49.3137 294.066 44.3045 294.066 38.3359H288.066ZM273.342 51.6543H259.309V57.6543H273.342V51.6543ZM256.309 54.6543V61.2461H262.309V54.6543H256.309ZM256.309 61.2461C256.309 61.2563 256.308 61.2491 256.312 61.2284C256.316 61.2073 256.323 61.1803 256.336 61.1513C256.348 61.1224 256.36 61.1004 256.37 61.0868C256.379 61.0737 256.38 61.0744 256.367 61.0877L260.61 65.3303C261.709 64.2305 262.309 62.8171 262.309 61.2461H256.309ZM256.367 61.0877C256.363 61.0913 256.371 61.0826 256.392 61.0685C256.414 61.0541 256.441 61.0387 256.473 61.0256C256.505 61.0125 256.533 61.0054 256.551 61.0019C256.569 60.9986 256.572 61 256.555 61V67C258.093 67 259.506 66.4336 260.61 65.3303L256.367 61.0877ZM256.555 61H251.047V67H256.555V61ZM251.047 61C251.03 61 251.031 60.9986 251.045 61.0013C251.06 61.004 251.081 61.0096 251.106 61.0197C251.131 61.0298 251.151 61.0409 251.164 61.0495C251.177 61.058 251.177 61.0601 251.166 61.0494L247.002 65.3685C248.109 66.4366 249.511 67 251.047 67V61ZM251.205 61.0877C251.192 61.0744 251.194 61.0737 251.202 61.0868C251.212 61.1004 251.225 61.1224 251.237 61.1513C251.249 61.1803 251.256 61.2073 251.261 61.2284C251.265 61.2491 251.264 61.2563 251.264 61.2461H245.264C245.264 62.8171 245.863 64.2305 246.963 65.3303L251.205 61.0877ZM259.309 49.3633H270.002V43.3633H259.309V49.3633ZM270.002 49.3633C273.534 49.3633 276.698 48.7893 279.096 47.2453L275.849 42.2001C274.849 42.8435 273.033 43.3633 270.002 43.3633V49.3633ZM279.117 47.232C282.054 45.3076 283.021 41.911 283.021 38.3359H277.021C277.021 41.0499 276.29 41.9111 275.829 42.2133L279.117 47.232ZM283.021 38.3359C283.021 34.7557 282.061 31.3347 279.096 29.4266L275.849 34.4718C276.283 34.7512 277.021 35.588 277.021 38.3359H283.021ZM279.117 29.4398C276.713 27.8651 273.541 27.2793 270.002 27.2793V33.2793C273.026 33.2793 274.834 33.8068 275.829 34.4586L279.117 29.4398ZM270.002 27.2793H259.309V33.2793H270.002V27.2793ZM256.309 30.2793V46.3633H262.309V30.2793H256.309ZM297.951 61.8906L296.236 64.3518L296.245 64.3579L297.951 61.8906ZM297.951 46.7148L296.27 44.2302L296.261 44.2362L297.951 46.7148ZM317.668 44.0781V47.0781H320.668V44.0781H317.668ZM306.154 39.7422L303.834 37.8404L303.831 37.8446L306.154 39.7422ZM296.926 41.002L294.745 43.0618L294.804 43.1241L294.866 43.183L296.926 41.002ZM323.586 34.4395L321.797 36.8475L321.807 36.8555L323.586 34.4395ZM319.074 63.502L316.893 65.5618L316.923 65.593L316.953 65.6233L319.074 63.502ZM318.576 61.3047H321.576V55.4708L316.831 58.8645L318.576 61.3047ZM307.883 64.5859L307.897 61.586L307.89 61.5859H307.883V64.5859ZM305.422 51.7246L303.507 49.4153L303.493 49.427L303.479 49.4388L305.422 51.7246ZM317.668 55.2988L319.266 57.8378L320.668 56.9554V55.2988H317.668ZM317.668 50.7285H320.668V47.7285H317.668V50.7285ZM299.667 59.4294C297.935 58.2223 297.084 56.625 297.084 54.2734H291.084C291.084 58.4844 292.812 61.9652 296.236 64.3518L299.667 59.4294ZM297.084 54.2734C297.084 51.9233 297.932 50.3591 299.641 49.1935L296.261 44.2362C292.814 46.5862 291.084 50.061 291.084 54.2734H297.084ZM299.632 49.1994C301.604 47.8654 304.309 47.0781 307.971 47.0781V41.0781C303.468 41.0781 299.494 42.0486 296.27 44.2302L299.632 49.1994ZM307.971 47.0781H317.668V41.0781H307.971V47.0781ZM320.668 44.0781C320.668 41.5391 320.166 38.881 318.286 37.1155L314.179 41.49C314.213 41.5214 314.668 42.0468 314.668 44.0781H320.668ZM318.286 37.1155C316.464 35.405 313.79 34.9551 311.193 34.9551V40.9551C313.401 40.9551 314.087 41.4036 314.179 41.49L318.286 37.1155ZM311.193 34.9551C308.407 34.9551 305.634 35.6448 303.834 37.8404L308.474 41.644C308.628 41.4567 309.214 40.9551 311.193 40.9551V34.9551ZM303.831 37.8446C303.394 38.3794 303.039 38.5 302.609 38.5V44.5C304.992 44.5 307.001 43.4488 308.478 41.6398L303.831 37.8446ZM302.609 38.5H298.244V44.5H302.609V38.5ZM298.244 38.5C298.299 38.5 298.421 38.5094 298.579 38.5691C298.742 38.6305 298.882 38.7226 298.986 38.8209L294.866 43.183C295.827 44.0907 297.026 44.5 298.244 44.5V38.5ZM299.107 38.9421C299.195 39.0351 299.286 39.1685 299.351 39.3348C299.414 39.4985 299.428 39.6349 299.428 39.7129H293.428C293.428 40.9443 293.858 42.1233 294.745 43.0618L299.107 38.9421ZM299.428 39.7129C299.428 38.8056 299.636 38.1509 299.961 37.6388C300.292 37.1153 300.854 36.5684 301.817 36.0612C303.832 35.0001 307.238 34.3047 312.395 34.3047V28.3047C306.907 28.3047 302.329 29.0107 299.022 30.7523C297.324 31.6465 295.89 32.8512 294.891 34.4298C293.884 36.0197 293.428 37.8174 293.428 39.7129H299.428ZM312.395 34.3047C316.608 34.3047 319.647 35.2504 321.797 36.8475L325.375 32.0315C321.899 29.4488 317.478 28.3047 312.395 28.3047V34.3047ZM321.807 36.8555C323.663 38.221 324.805 40.4138 324.805 44.0781H330.805C330.805 39.0315 329.134 34.7986 325.364 32.0234L321.807 36.8555ZM324.805 44.0781V62.2129H330.805V44.0781H324.805ZM324.805 62.2129C324.805 62.1598 324.814 62.0257 324.882 61.8495C324.952 61.6665 325.062 61.5045 325.185 61.3806L329.428 65.6233C330.394 64.6573 330.805 63.429 330.805 62.2129H324.805ZM325.185 61.3806C325.309 61.2568 325.471 61.1478 325.654 61.0771C325.83 61.009 325.964 61 326.018 61V67C327.234 67 328.462 66.5893 329.428 65.6233L325.185 61.3806ZM326.018 61H320.363V67H326.018V61ZM320.363 61C320.416 61 320.55 61.009 320.727 61.0771C320.91 61.1478 321.072 61.2568 321.196 61.3806L316.953 65.6233C317.919 66.5893 319.147 67 320.363 67V61ZM321.255 61.4421C321.343 61.5351 321.435 61.6685 321.499 61.8348C321.562 61.9985 321.576 62.1349 321.576 62.2129H315.576C315.576 63.4443 316.007 64.6233 316.893 65.5618L321.255 61.4421ZM321.576 62.2129V61.3047H315.576V62.2129H321.576ZM316.831 58.8645C314.293 60.6799 311.353 61.6027 307.897 61.586L307.868 67.5859C312.498 67.6083 316.688 66.3436 320.321 63.7448L316.831 58.8645ZM307.883 61.5859C304.302 61.5859 301.632 60.7892 299.658 59.4234L296.245 64.3579C299.465 66.5858 303.416 67.5859 307.883 67.5859V61.5859ZM308.674 47.7285C306.829 47.7285 304.995 48.1811 303.507 49.4153L307.337 54.0339C307.45 53.94 307.784 53.7285 308.674 53.7285V47.7285ZM303.479 49.4388C302.005 50.6913 301.25 52.3969 301.25 54.3027H307.25C307.25 54.2247 307.257 54.1751 307.263 54.1482C307.268 54.1223 307.273 54.1111 307.274 54.1086C307.275 54.1063 307.278 54.1004 307.287 54.0884C307.297 54.0758 307.319 54.049 307.365 54.0104L303.479 49.4388ZM301.25 54.3027C301.25 56.2605 302.065 57.9695 303.56 59.2148L307.401 54.6055C307.342 54.5564 307.31 54.52 307.293 54.4994C307.278 54.4796 307.272 54.4688 307.271 54.4653C307.269 54.4619 307.265 54.4532 307.261 54.4334C307.257 54.4128 307.25 54.3712 307.25 54.3027H301.25ZM303.56 59.2148C305.103 60.5005 307.044 60.9355 308.967 60.9355V54.9355C307.882 54.9355 307.499 54.687 307.401 54.6055L303.56 59.2148ZM308.967 60.9355C312.594 60.9355 316.043 59.8665 319.266 57.8378L316.07 52.7598C313.707 54.2468 311.355 54.9355 308.967 54.9355V60.9355ZM320.668 55.2988V50.7285H314.668V55.2988H320.668ZM317.668 47.7285H308.674V53.7285H317.668V47.7285ZM357.248 39.332L357.131 42.3298L357.19 42.332H357.248V39.332ZM352.736 39.1562L352.853 36.1585L352.795 36.1562H352.736V39.1562ZM345.178 43.4922L342.871 41.5747L342.178 42.4083V43.4922H345.178ZM344.65 63.502L342.591 61.3209L342.559 61.3503L342.529 61.3806L344.65 63.502ZM335.539 32.418L337.66 34.5393L335.539 32.418ZM344.68 32.418L342.499 34.4778L342.528 34.509L342.558 34.5393L344.68 32.418ZM345.178 35.5527H342.178V41.4356L346.939 37.981L345.178 35.5527ZM350.92 32.3594L351.967 35.1708L351.975 35.1678L351.983 35.1647L350.92 32.3594ZM359.475 31.832L357.294 33.8919L357.352 33.9542L357.415 34.0131L359.475 31.832ZM359.475 38.834L357.415 36.6529L357.384 36.6824L357.353 36.7127L359.475 38.834ZM357.365 36.3343L352.853 36.1585L352.62 42.154L357.131 42.3298L357.365 36.3343ZM352.736 36.1562C348.877 36.1562 345.591 38.3014 342.871 41.5747L347.485 45.4097C349.569 42.9017 351.322 42.1562 352.736 42.1562V36.1562ZM342.178 43.4922V62.2129H348.178V43.4922H342.178ZM342.178 62.2129C342.178 62.1396 342.191 61.9862 342.269 61.7948C342.35 61.5977 342.469 61.4358 342.591 61.3209L346.71 65.683C347.72 64.7296 348.178 63.4826 348.178 62.2129H342.178ZM342.529 61.3806C342.641 61.2683 342.797 61.1595 342.983 61.0856C343.166 61.0135 343.314 61 343.391 61V67C344.623 67 345.828 66.5666 346.772 65.6233L342.529 61.3806ZM343.391 61H336.828V67H343.391V61ZM336.828 61C336.881 61 337.015 61.009 337.192 61.0771C337.375 61.1478 337.537 61.2568 337.66 61.3806L333.418 65.6233C334.384 66.5893 335.612 67 336.828 67V61ZM337.66 61.3806C337.784 61.5045 337.893 61.6665 337.964 61.8495C338.032 62.0257 338.041 62.1598 338.041 62.2129H332.041C332.041 63.429 332.452 64.6573 333.418 65.6233L337.66 61.3806ZM338.041 62.2129V33.707H332.041V62.2129H338.041ZM338.041 33.707C338.041 33.7602 338.032 33.8942 337.964 34.0705C337.893 34.2534 337.784 34.4155 337.66 34.5393L333.418 30.2966C332.452 31.2626 332.041 32.491 332.041 33.707H338.041ZM337.66 34.5393C337.575 34.625 337.44 34.7257 337.261 34.7991C337.083 34.872 336.927 34.8906 336.828 34.8906V28.8906C335.544 28.8906 334.345 29.3691 333.418 30.2966L337.66 34.5393ZM336.828 34.8906H343.391V28.8906H336.828V34.8906ZM343.391 34.8906C343.317 34.8906 343.164 34.8774 342.973 34.7991C342.775 34.7185 342.613 34.5994 342.499 34.4778L346.861 30.3581C345.907 29.3487 344.66 28.8906 343.391 28.8906V34.8906ZM342.558 34.5393C342.435 34.4155 342.326 34.2534 342.255 34.0705C342.187 33.8942 342.178 33.7602 342.178 33.707H348.178C348.178 32.491 347.767 31.2626 346.801 30.2966L342.558 34.5393ZM342.178 33.707V35.5527H348.178V33.707H342.178ZM346.939 37.981C348.765 36.6564 350.441 35.739 351.967 35.1708L349.873 29.5479C347.727 30.3469 345.575 31.5585 343.416 33.1245L346.939 37.981ZM351.983 35.1647C353.372 34.6382 355.395 34.3047 358.186 34.3047V28.3047C354.999 28.3047 352.178 28.6743 349.857 29.554L351.983 35.1647ZM358.186 34.3047C358.112 34.3047 357.959 34.2915 357.767 34.2132C357.57 34.1325 357.408 34.0135 357.294 33.8919L361.656 29.7722C360.702 28.7627 359.455 28.3047 358.186 28.3047V34.3047ZM357.415 34.0131C357.305 33.9096 357.187 33.7547 357.103 33.5544C357.02 33.3573 357.002 33.1897 357.002 33.0918H363.002C363.002 31.8051 362.519 30.5809 361.534 29.651L357.415 34.0131ZM357.002 33.0918V37.5449H363.002V33.0918H357.002ZM357.002 37.5449C357.002 37.4717 357.015 37.3182 357.093 37.1268C357.174 36.9297 357.293 36.7678 357.415 36.6529L361.534 41.015C362.544 40.0617 363.002 38.8146 363.002 37.5449H357.002ZM357.353 36.7127C357.477 36.5888 357.639 36.4798 357.822 36.4091C357.998 36.341 358.132 36.332 358.186 36.332V42.332C359.402 42.332 360.63 41.9213 361.596 40.9553L357.353 36.7127ZM358.186 36.332H357.248V42.332H358.186V36.332ZM366.945 35.5527L368.987 37.7506L368.995 37.7435L366.945 35.5527ZM392.023 33.8828L390.49 36.4614L390.498 36.4659L392.023 33.8828ZM395.861 42.7891L393.801 40.608L393.77 40.6374L393.74 40.6677L395.861 42.7891ZM386.838 41.1484L384.297 42.7433L384.306 42.7579L384.315 42.7725L386.838 41.1484ZM374.592 40.6504L372.225 38.8064L372.222 38.8107L374.592 40.6504ZM374.65 55.2695L372.299 57.1324L372.306 57.1417L372.314 57.151L374.65 55.2695ZM387.131 54.7715L384.598 53.1631L384.594 53.1698L384.59 53.1766L387.131 54.7715ZM396.154 53.1309L393.973 55.1907L394.032 55.253L394.094 55.3119L396.154 53.1309ZM392.316 62.0078L390.791 59.4247L390.783 59.4292L392.316 62.0078ZM379.748 61.5859C374.787 61.5859 371.344 60.3181 369.009 58.1628L364.94 62.5716C368.699 66.0413 373.772 67.5859 379.748 67.5859V61.5859ZM369.009 58.1628C366.755 56.082 365.404 52.8632 365.404 47.9746H359.404C359.404 53.9845 361.1 59.0274 364.94 62.5716L369.009 58.1628ZM365.404 47.9746C365.404 43.0571 366.751 39.8281 368.987 37.7506L364.903 33.3549C361.085 36.9024 359.404 41.9546 359.404 47.9746H365.404ZM368.995 37.7435C371.315 35.5728 374.707 34.3047 379.572 34.3047V28.3047C373.656 28.3047 368.63 29.8686 364.896 33.3619L368.995 37.7435ZM379.572 34.3047C384.739 34.3047 388.265 35.1384 390.49 36.4614L393.557 31.3042C390.001 29.1898 385.226 28.3047 379.572 28.3047V34.3047ZM390.498 36.4659C392.501 37.6491 393.389 39.2098 393.389 41.5H399.389C399.389 37.0715 397.366 33.554 393.549 31.2997L390.498 36.4659ZM393.389 41.5C393.389 41.4268 393.402 41.2733 393.48 41.0819C393.561 40.8848 393.68 40.7229 393.801 40.608L397.921 44.9701C398.931 44.0167 399.389 42.7697 399.389 41.5H393.389ZM393.74 40.6677C393.864 40.5439 394.026 40.4349 394.209 40.3642C394.385 40.2961 394.519 40.2871 394.572 40.2871V46.2871C395.788 46.2871 397.017 45.8764 397.983 44.9104L393.74 40.6677ZM394.572 40.2871H390.207V46.2871H394.572V40.2871ZM390.207 40.2871C390.113 40.2871 390.058 40.2714 389.976 40.2196C389.868 40.1511 389.646 39.9687 389.36 39.5244L384.315 42.7725C385.613 44.787 387.576 46.2871 390.207 46.2871V40.2871ZM389.379 39.5536C387.492 36.5481 384.272 35.3945 380.715 35.3945V41.3945C383.017 41.3945 383.879 42.0769 384.297 42.7433L389.379 39.5536ZM380.715 35.3945C377.378 35.3945 374.214 36.2544 372.225 38.8064L376.958 42.4943C377.313 42.0386 378.232 41.3945 380.715 41.3945V35.3945ZM372.222 38.8107C370.445 41.0999 369.863 44.3699 369.863 47.9453H375.863C375.863 44.7629 376.434 43.1696 376.962 42.4901L372.222 38.8107ZM369.863 47.9453C369.863 51.5403 370.471 54.8249 372.299 57.1324L377.002 53.4066C376.447 52.7063 375.863 51.1081 375.863 47.9453H369.863ZM372.314 57.151C374.345 59.6738 377.538 60.5254 380.92 60.5254V54.5254C378.365 54.5254 377.378 53.8731 376.987 53.3881L372.314 57.151ZM380.92 60.5254C384.508 60.5254 387.775 59.3891 389.672 56.3663L384.59 53.1766C384.182 53.8257 383.309 54.5254 380.92 54.5254V60.5254ZM389.663 56.3799C389.952 55.9245 390.177 55.7378 390.285 55.6683C390.365 55.6167 390.415 55.6035 390.5 55.6035V49.6035C387.849 49.6035 385.887 51.1348 384.598 53.1631L389.663 56.3799ZM390.5 55.6035H394.865V49.6035H390.5V55.6035ZM394.865 55.6035C394.792 55.6035 394.639 55.5903 394.447 55.512C394.25 55.4314 394.088 55.3123 393.973 55.1907L398.335 51.071C397.382 50.0615 396.135 49.6035 394.865 49.6035V55.6035ZM394.094 55.3119C393.985 55.2084 393.866 55.0536 393.782 54.8532C393.7 54.6562 393.682 54.4885 393.682 54.3906H399.682C399.682 53.1039 399.199 51.8797 398.214 50.9498L394.094 55.3119ZM393.682 54.3906C393.682 56.6808 392.794 58.2415 390.791 59.4247L393.842 64.5909C397.659 62.3366 399.682 58.8192 399.682 54.3906H393.682ZM390.783 59.4292C388.563 60.7493 385.003 61.5859 379.748 61.5859V67.5859C385.47 67.5859 390.289 66.7038 393.85 64.5864L390.783 59.4292ZM404.211 35.6406L406.275 37.8174L406.283 37.8104L404.211 35.6406ZM429.377 35.5234L427.328 37.7147L427.336 37.7218L429.377 35.5234ZM410.012 51.0508V48.0508H406.758L407.022 51.2939L410.012 51.0508ZM412.062 56.2949L410.016 58.4881L410.025 58.4965L410.034 58.5049L412.062 56.2949ZM426.623 54.3906V51.3906H426.602L426.581 51.3909L426.623 54.3906ZM432.277 54.918L430.096 56.9778L430.155 57.0402L430.217 57.099L432.277 54.918ZM416.779 64.5859L416.785 61.5859H416.779V64.5859ZM409.953 44.8691L406.957 44.7168L406.797 47.8691H409.953V44.8691ZM423.576 44.8691V47.8691H426.706L426.573 44.7421L423.576 44.8691ZM406.246 58.1315C403.997 55.9995 402.67 52.7847 402.67 48.0039H396.67C396.67 53.9262 398.351 58.9146 402.118 62.4857L406.246 58.1315ZM402.67 48.0039C402.67 43.2066 404.005 39.9706 406.275 37.8174L402.147 33.4639C398.362 37.0528 396.67 42.0591 396.67 48.0039H402.67ZM406.283 37.8104C408.607 35.5912 411.982 34.3047 416.809 34.3047V28.3047C410.893 28.3047 405.87 29.9088 402.139 33.4709L406.283 37.8104ZM416.809 34.3047C421.657 34.3047 425.029 35.5647 427.328 37.7147L431.426 33.3322C427.71 29.8572 422.702 28.3047 416.809 28.3047V34.3047ZM427.336 37.7218C429.574 39.8002 430.889 42.9205 430.889 47.5645H436.889C436.889 41.7397 435.196 36.8326 431.418 33.3251L427.336 37.7218ZM430.889 47.5645V49.2344H436.889V47.5645H430.889ZM430.889 49.2344C430.889 49.1599 430.902 49.0182 430.971 48.8453C431.042 48.6689 431.143 48.5282 431.24 48.4314L435.483 52.6741C436.434 51.7231 436.889 50.5038 436.889 49.2344H430.889ZM431.24 48.4314C431.364 48.3076 431.526 48.1986 431.709 48.1279C431.885 48.0598 432.019 48.0508 432.072 48.0508V54.0508C433.288 54.0508 434.517 53.64 435.483 52.6741L431.24 48.4314ZM432.072 48.0508H410.012V54.0508H432.072V48.0508ZM407.022 51.2939C407.248 54.0758 408.078 56.6801 410.016 58.4881L414.109 54.1018C413.703 53.7223 413.166 52.8305 413.002 50.8077L407.022 51.2939ZM410.034 58.5049C412.031 60.3382 414.829 60.9355 417.746 60.9355V54.9355C415.468 54.9355 414.477 54.4391 414.091 54.085L410.034 58.5049ZM417.746 60.9355C420.622 60.9355 423.573 60.3148 425.402 58.0753L420.755 54.2801C420.669 54.3844 420.065 54.9355 417.746 54.9355V60.9355ZM425.402 58.0753C425.847 57.5306 426.218 57.3965 426.665 57.3903L426.581 51.3909C424.215 51.4238 422.224 52.4811 420.755 54.2801L425.402 58.0753ZM426.623 57.3906H430.988V51.3906H426.623V57.3906ZM430.988 57.3906C430.915 57.3906 430.762 57.3774 430.57 57.2991C430.373 57.2185 430.211 57.0994 430.096 56.9778L434.458 52.8581C433.505 51.8487 432.258 51.3906 430.988 51.3906V57.3906ZM430.217 57.099C430.096 56.9842 429.977 56.8223 429.896 56.6252C429.818 56.4338 429.805 56.2803 429.805 56.207H435.805C435.805 54.9373 435.347 53.6903 434.337 52.7369L430.217 57.099ZM429.805 56.207C429.805 57.1123 429.596 57.7641 429.272 58.2737C428.94 58.7952 428.376 59.3412 427.408 59.8473C425.384 60.906 421.962 61.5954 416.785 61.5859L416.774 67.5859C422.28 67.596 426.871 66.8987 430.188 65.1644C431.891 64.274 433.331 63.072 434.334 61.4938C435.346 59.9038 435.805 58.1045 435.805 56.207H429.805ZM416.779 61.5859C411.918 61.5859 408.544 60.3106 406.246 58.1315L402.118 62.4857C405.835 66.0097 410.859 67.5859 416.779 67.5859V61.5859ZM409.953 47.8691H423.576V41.8691H409.953V47.8691ZM426.573 44.7421C426.458 42.0102 425.709 39.451 423.87 37.5805C422.001 35.6793 419.468 34.9551 416.779 34.9551V40.9551C418.427 40.9551 419.194 41.3832 419.591 41.7867C420.018 42.2209 420.499 43.1188 420.579 44.9961L426.573 44.7421ZM416.779 34.9551C414.095 34.9551 411.57 35.6821 409.701 37.5759C407.863 39.4375 407.096 41.9866 406.957 44.7168L412.949 45.0215C413.045 43.1423 413.533 42.2344 413.97 41.7913C414.376 41.3804 415.147 40.9551 416.779 40.9551V34.9551Z" fill="black"/>
<path d="M41.6163 71.5833C27.5063 71.5833 15.8517 60.6542 14.1571 46.5L28.1979 46.5C29.7542 52.6992 35.1838 57.25 41.6163 57.25C48.0488 57.25 53.4783 52.6992 55 46.5H69.0754C67.3808 60.6542 55.7263 71.5833 41.6163 71.5833Z" fill="white"/>
<path d="M41.5001 14.3333C55.6101 14.3333 67.2646 25.2625 68.9592 39.4167H54.9184C53.3621 33.2175 47.9326 28.6667 41.5001 28.6667C35.0676 28.6667 29.638 33.2175 28.1163 39.4167H14.0409C15.7355 25.2625 27.3901 14.3333 41.5001 14.3333Z" fill="#B50005"/>
<ellipse cx="41.5" cy="43" rx="7.5" ry="7" fill="white"/>
<path d="M41.5 7.16666C22.41 7.16666 6.91663 23.22 6.91663 43C6.91663 62.78 22.41 78.8333 41.5 78.8333C60.59 78.8333 76.0833 62.78 76.0833 43C76.0833 23.22 60.59 7.16666 41.5 7.16666ZM41.5 14.3333C55.61 14.3333 67.2645 25.2625 68.9591 39.4167H54.9183C53.362 33.2175 47.9325 28.6667 41.5 28.6667C35.0675 28.6667 29.6379 33.2175 28.1162 39.4167H14.0408C15.7354 25.2625 27.39 14.3333 41.5 14.3333ZM48.4166 43C48.4166 46.9417 45.3041 50.1667 41.5 50.1667C37.6958 50.1667 34.5833 46.9417 34.5833 43C34.5833 39.0583 37.6958 35.8333 41.5 35.8333C45.3041 35.8333 48.4166 39.0583 48.4166 43ZM41.5 71.6667C27.39 71.6667 15.7354 60.7375 14.0408 46.5833H28.0816C29.6033 52.7825 35.0329 57.3333 41.4654 57.3333C47.8979 57.3333 53.3275 52.7825 54.8491 46.5833H68.89C67.2645 60.7375 55.61 71.6667 41.5 71.6667Z" fill="#0D131A"/>
<path d="M45.5 43C45.5 45.5361 43.6609 47.5 41.5 47.5C39.3391 47.5 37.5 45.5361 37.5 43C37.5 40.4639 39.3391 38.5 41.5 38.5C43.6609 38.5 45.5 40.4639 45.5 43Z" fill="white" stroke="#0D131A"/>
</svg>
